<mxfile host="app.diagrams.net" modified="2024-04-10T07:57:10.786Z" agent="Mozilla/5.0 (Windows NT 10.0; Win64; x64) AppleWebKit/537.36 (KHTML, like Gecko) Chrome/123.0.0.0 Safari/537.36" version="24.2.3" etag="onsQg8hSRI8JbRRcQ3cq" type="github">
  <diagram name="Page-1" id="P_8knm1bX8xKZ35xhsfH">
    <mxGraphModel>
      <root>
        <mxCell id="0" />
        <mxCell id="1" parent="0" />
      </root>
    </mxGraphModel>
  </diagram>
</mxfile>
